Coordinates
version=1
nRows=26
nColumns=24
inDegrees=yes

Units are S.I. units (second, meters, Newtons, ...)
Angles are in degrees.

endheader
time	pelvis_tilt	pelvis_list	pelvis_rotation	pelvis_tx	pelvis_ty	pelvis_tz	hip_flexion_r	hip_adduction_r	hip_rotation_r	knee_angle_r	ankle_angle_r	subtalar_angle_r	mtp_angle_r	hip_flexion_l	hip_adduction_l	hip_rotation_l	knee_angle_l	ankle_angle_l	subtalar_angle_l	mtp_angle_l	lumbar_extension	lumbar_bending	lumbar_rotation
      0.45000000	     -7.80546044	      6.07920648	      1.59556392	     -0.80349669	      1.02286557	      0.27830670	     37.59836629	     -5.74471105	     -1.40976045	     -5.66488010	      9.25900146	     -2.53282032	      9.58051729	    -11.39974991	      7.52654423	      4.59348117	     -1.50855398	     16.79665487	      5.72750255	      4.01987402	     -8.87862447	     -5.83876549	     -5.53657880
      0.45416667	     -7.83151382	      6.07667179	      1.69232860	     -0.79748990	      1.02200133	      0.27841904	     37.59740054	     -5.73571098	     -0.99710939	     -6.16503881	      9.23639132	     -2.72518252	      9.58175222	    -11.55723732	      7.47738219	      4.55522767	     -1.86801840	     16.89817034	      5.99446053	      4.07893582	     -8.84937502	     -5.72328390	     -5.56715639
      0.45833333	     -7.83631915	      6.06481603	      1.79369463	     -0.79143576	      1.02121415	      0.27853375	     37.55331439	     -5.71949581	     -0.61822598	     -6.65843141	      9.18870042	     -2.89690803	      9.59085346	    -11.71628801	      7.41346572	      4.46565759	     -2.27705030	     17.01162989	      6.34708340	      4.17373397	     -8.84234566	     -5.59380056	     -5.58982495
      0.46250000	     -7.85440877	      6.03946090	      1.90047818	     -0.78532059	      1.02046129	      0.27866192	     37.49809246	     -5.69068074	     -0.26738578	     -7.13270811	      9.09169959	     -3.07628159	      9.60951986	    -11.83823853	      7.33183922	      4.32909049	     -2.73423271	     17.12710651	      6.75708546	      4.31591904	     -8.80982341	     -5.44346686	     -5.60878047
      0.46666667	     -7.85713491	      6.02293526	      2.01349553	     -0.77919436	      1.01978017	      0.27879601	     37.41304907	     -5.67208854	      0.06781949	     -7.60047203	      8.98820764	     -3.23478801	      9.62915384	    -11.97961526	      7.25568407	      4.26963535	     -3.18887055	     17.20982554	      7.07524534	      4.44204501	     -8.80589221	     -5.30873352	     -5.63467331
      0.47083333	     -7.88256646	      5.96604010	      2.12900491	     -0.77296425	      1.01913500	      0.27893164	     37.32198782	     -5.61591396	      0.33212344	     -8.03268251	      8.73312663	     -3.46550012	      9.65712010	    -12.06641889	      7.13358510	      4.08316037	     -3.70568144	     17.29094449	      7.54353392	      4.62074061	     -8.74171273	     -5.11072623	     -5.65706548
      0.47500000	     -7.87988751	      5.91885695	      2.23022622	     -0.76672912	      1.01856958	      0.27910084	     37.20057070	     -5.56063625	      0.58528330	     -8.46993653	      8.48840942	     -3.66736342	      9.69538691	    -12.18201730	      7.01981337	      3.87954990	     -4.21728131	     17.32477835	      8.01993226	      4.85186664	     -8.72545357	     -4.93731797	     -5.66646087
      0.47916667	     -7.91774303	      5.85893224	      2.33477286	     -0.76041653	      1.01799725	      0.27928200	     37.10755819	     -5.49260791	      0.80514956	     -8.89414779	      8.20508572	     -3.92414946	      9.74795876	    -12.23028588	      6.89155947	      3.65278927	     -4.78967301	     17.35541217	      8.50120267	      5.15766662	     -8.63020370	     -4.74409360	     -5.68257490
      0.48333333	     -7.92445367	      5.78237424	      2.44893871	     -0.75409843	      1.01756324	      0.27945036	     36.96193204	     -5.41767171	      0.96999327	     -9.28443624	      7.83682753	     -4.18296507	      9.80043982	    -12.29184714	      6.74067843	      3.44720982	     -5.39037719	     17.36050606	      8.96266799	      5.48221314	     -8.58776905	     -4.52451650	     -5.69094864
      0.48750000	     -7.97300138	      5.72029818	      2.57011216	     -0.74776294	      1.01710528	      0.27962146	     36.87468749	     -5.36396381	      1.06516709	     -9.70260502	      7.44701821	     -4.35671608	     10.29692851	    -12.28660030	      6.60235118	      3.21638297	     -6.03625146	     17.27852013	      9.42907624	      8.26528153	     -8.48700142	     -4.33856992	     -5.70792612
      0.49166667	     -7.97098033	      5.62058372	      2.66824910	     -0.74137981	      1.01682176	      0.27983427	     36.70165851	     -5.25871631	      1.19675472	    -10.05778531	      6.97435211	     -4.70943198	     10.28948526	    -12.33700706	      6.42534994	      3.02077365	     -6.66831447	     17.19661462	      9.81744662	      8.34341747	     -8.44737317	     -4.09284243	     -5.68158059
      0.49583333	     -8.02645051	      5.52123870	      2.77964235	     -0.73496995	      1.01651221	      0.28004012	     36.60036847	     -5.16485017	      1.26261533	    -10.43868344	      6.48505034	     -5.01859192	     10.28583268	    -12.27703348	      6.24524880	      2.75672156	     -7.40254497	     17.12525699	     10.30850493	      8.48644529	     -8.31983356	     -3.85356442	     -5.67748506
      0.50000000	     -8.04687030	      5.40532727	      2.88081406	     -0.72855124	      1.01632842	      0.28025938	     36.46354203	     -5.05402536	      1.29186389	    -10.82204307	      5.97684067	     -5.32639429	     10.28201095	    -12.23719268	      6.04502598	      2.48691753	     -8.16375259	     17.01321475	     10.78454937	      8.68940676	     -8.24357847	     -3.58999437	     -5.65014004
      0.50416667	     -8.08854951	      5.28677990	      2.97521608	     -0.72211246	      1.01617732	      0.28050089	     36.35886829	     -4.93937083	      1.30085953	    -11.22295960	      5.45487052	     -5.63615121	     10.27591444	    -12.14780926	      5.84137996	      2.19790519	     -8.96915799	     16.86123182	     11.27139806	      8.96179595	     -8.13281616	     -3.33223965	     -5.61733136
      0.50833333	     -8.13007327	      5.15559262	      3.06900659	     -0.71566189	      1.01610027	      0.28074814	     36.26217993	     -4.81668578	      1.27824934	    -11.64528749	      4.94141751	     -5.94012651	     10.26405839	    -12.02641284	      5.62155243	      1.90522563	     -9.83750330	     16.67533464	     11.73229275	      9.29277718	     -8.02130129	     -3.05575472	     -5.57387731
      0.51250000	     -8.16288823	      5.02646540	      3.14496182	     -0.70922187	      1.01610032	      0.28103655	     36.17700954	     -4.68910195	      1.24369298	    -12.10493265	      4.42495856	     -6.23070952	     10.24399680	    -11.89083160	      5.40209356	      1.58982217	    -10.74008531	     16.43509263	     12.23332312	      9.74103771	     -7.93004175	     -2.78839201	     -5.51996712
      0.51666667	     -8.18152880	      4.87441958	      3.22736711	     -0.70276702	      1.01621350	      0.28132194	     36.06918387	     -4.54849079	      1.17734090	    -12.55713905	      3.96090257	     -6.46754326	     10.20777493	    -11.72801207	      5.15105593	      1.26116274	    -11.71919085	     16.14667948	     12.70773787	     10.42638027	     -7.84811336	     -2.50079868	     -5.44911494
      0.52083333	     -8.22387143	      4.71720947	      3.28867019	     -0.69626852	      1.01632652	      0.28159256	     36.03456441	     -4.40379451	      1.02677868	    -13.11866515	      3.60163566	     -6.59027641	      9.97984179	    -11.54467738	      4.90883384	      1.01997880	    -12.67874581	     15.74325683	     12.94659489	     14.22208832	     -7.72328729	     -2.18338576	     -5.33108957
      0.52500000	     -8.25557489	      4.54449894	      3.34107053	     -0.68978063	      1.01653616	      0.28192206	     35.97398661	     -4.23244656	      0.95686644	    -13.64984844	      3.19753984	     -6.88405281	      9.95677757	    -11.32800568	      4.64251607	      0.73801831	    -13.71822312	     15.36417224	     13.28631327	     14.32302855	     -7.60943836	     -1.84893987	     -5.27471422
      0.52916667	     -8.28426783	      4.36077756	      3.38672349	     -0.68328575	      1.01680109	      0.28225046	     35.92715009	     -4.05637753	      0.83385881	    -14.22293349	      2.89611493	     -7.02645832	      9.92550057	    -11.07001780	      4.35937134	      0.41377531	    -14.84543175	     14.96597620	     13.64640104	     14.49540231	     -7.49778496	     -1.51141442	     -5.15668550
      0.53333333	     -8.28301972	      4.17998128	      3.40662111	     -0.67679890	      1.01716067	      0.28262487	     35.86777355	     -3.87134552	      0.71344388	    -14.83659655	      2.63077113	     -7.16939570	      9.87083368	    -10.82492088	      4.07548464	      0.06395117	    -15.99238669	     14.47809068	     14.04336564	     14.80210595	     -7.42844832	     -1.17880476	     -5.03676478
      0.53750000	     -8.30309532	      3.98801164	      3.42159311	     -0.67029918	      1.01753638	      0.28300635	     35.83691164	     -3.67807495	      0.57706062	    -15.46899983	      2.42590124	     -7.25709536	      9.81090645	    -10.51903856	      3.78008574	     -0.26630200	    -17.20764020	     13.96805668	     14.35010273	     15.13996187	     -7.32655750	     -0.82604601	     -4.89859263
      0.54166667	     -8.28861720	      3.78577524	      3.41793245	     -0.66380872	      1.01800295	      0.28342189	     35.77132486	     -3.46662199	      0.44391650	    -16.10749300	      2.27183187	     -7.31995847	      9.73529849	    -10.22000391	      3.46546736	     -0.63336341	    -18.47228780	     13.39828412	     14.68302399	     15.56287960	     -7.26917179	     -0.46456934	     -4.74832093
      0.54583333	     -8.26784336	      3.58222106	      3.40634226	     -0.65732072	      1.01854833	      0.28385708	     35.68110248	     -3.24724432	      0.35471143	    -16.71085319	      2.11946184	     -7.41509831	      9.01784892	     -9.90346898	      3.15219235	     -0.93796556	    -19.75836701	     12.65193171	     14.82301802	     19.54743539	     -7.21303514	     -0.10911211	     -4.60033926
      0.55000000	     -8.23918212	      3.37835593	      3.37703046	     -0.65083540	      1.01910746	      0.28429985	     35.60416624	     -3.03020575	      0.19220510	    -17.36150042	      2.09677575	     -7.32507166	      9.01022213	     -9.55787296	      2.83281819	     -1.28873778	    -21.11860113	     11.98275060	     15.05750674	     19.60797897	     -7.16827221	      0.25257755	     -4.42956002
      0.55416667	     -8.19236979	      3.16902963	      3.33171388	     -0.64436393	      1.01972635	      0.28479206	     35.49121298	     -2.79368384	      0.07651436	    -17.97496947	      2.05465712	     -7.30852684	      8.99059318	     -9.20058946	      2.49822061	     -1.66184221	    -22.52648244	     11.25571083	     15.29257946	     19.71487267	     -7.14302420	      0.61593642	     -4.25020092
